# xmcd CD database file
#
# Track frame offsets:
#	150
#	20685
#	46750
#	63343
#	85228
#	108968
#	127858
#	137618
#	153755
#
# Disc length: 2582 seconds
#
# Revision: 1
# Processed by: cddbd v1.5.2PL0 Copyright (c) Steve Scherf et al.
# Submitted via: CDex 1.51
#
DISCID=650a1409
DTITLE=Rafael Cameron - Cameron's In Love
DYEAR=1981
DGENRE=Soul
TTITLE0=Number One
TTITLE1=All That's Good To Me
TTITLE2=Let's Get Married
TTITLE3=Boogies Gonna Get Ya'
TTITLE4=Funtown U.S.A.
TTITLE5=I'd Go Crazy
TTITLE6=Daisy
TTITLE7=In Love
TTITLE8=All That's Good To Me [12" Version]
EXTD=\n\n YEAR: 1981
EXTT0=
EXTT1=
EXTT2=
EXTT3=
EXTT4=
EXTT5=
EXTT6=
EXTT7=
EXTT8=
PLAYORDER=
